<svg width="186" height="171" viewBox="0 0 186 171" fill="none" xmlns="http://www.w3.org/2000/svg">
<path d="M157.752 64.5475C157.752 61.0945 153.886 61.0944 152.167 61.5261C154.573 59.6269 157.394 60.0874 158.396 60.6629L181.628 72.0538C183.841 73.1392 185.245 75.3975 185.245 77.8724V152.808C185.245 155.316 183.804 157.599 181.545 158.666L159.685 169.003C158.181 169.65 154.917 171.247 152.167 169.002C155.604 169.65 157.466 167.204 157.752 165.55V64.5475Z" fill="white"/>
<path d="M152.447 61.4641C154.27 61.1037 157.752 61.2706 157.752 64.5475L157.753 90.3416L124.807 115.265L107.673 128.227L87.32 143.624C86.0889 144.555 84.3563 144.401 83.3077 143.266L76.0486 135.411C74.9114 134.181 74.991 132.255 76.2258 131.123L93.5296 115.265L107.673 102.303L152.167 61.5261L152.447 61.4641Z" fill="white"/>
<path d="M157.753 140.188L124.807 115.265L107.673 102.303L87.32 86.9059C86.0889 85.9746 84.3563 86.1291 83.3077 87.2638L76.0486 95.1186C74.9114 96.349 74.991 98.2752 76.2258 99.407L93.5296 115.265L107.673 128.227L152.168 169.004C155.605 169.651 157.466 167.204 157.752 165.55L157.753 140.188Z" fill="white"/>
<path d="M0.245166 48.3525C1.60218 51.6551 3.64724 54.738 6.37993 57.377L53.5245 102.903C53.4904 117.587 41.5766 129.48 26.8848 129.48C12.1721 129.48 0.245166 117.553 0.245166 102.84V48.3525Z" fill="white"/>
<path d="M101.766 0C116.478 8.47349e-05 128.405 11.927 128.405 26.6396V68.541L107.542 88.3154L85.6416 73.6953C84.2314 72.516 82.1619 72.5992 80.8486 73.8877L62.7324 94.9795C61.9335 95.8439 61.6384 96.9965 61.833 98.0732L8.13472 46.2168C-2.44871 35.9963 -2.74411 19.1294 7.47651 8.5459C17.697 -2.03705 34.5633 -2.32831 45.1464 7.8916L75.125 36.8379V26.6396C75.1251 11.927 87.0529 0 101.766 0Z" fill="white"/>
</svg>
