<svg width="235" height="228" viewBox="0 0 235 228" fill="none" xmlns="http://www.w3.org/2000/svg">
<mask id="mask0_272_17" style="mask-type:luminance" maskUnits="userSpaceOnUse" x="0" y="0" width="222" height="222">
<path d="M222 0H0V222H222V0Z" fill="white"/>
</mask>
<g mask="url(#mask0_272_17)">
<path d="M111 222C172.304 222 222 172.304 222 111C222 49.6964 172.304 0 111 0C49.6964 0 0 49.6964 0 111C0 172.304 49.6964 222 111 222Z" fill="black"/>
<path opacity="0.5" d="M97.6794 75.4798C97.6794 60.767 85.7522 48.8398 71.0394 48.8398C56.3266 48.8398 44.3994 60.767 44.3994 75.4798V146.52C44.3994 161.233 56.3266 173.16 71.0394 173.16C85.7522 173.16 97.6794 161.233 97.6794 146.52V75.4798Z" fill="#D9D9D9"/>
<path d="M146.52 48.8398C161.233 48.8398 173.16 60.767 173.16 75.4798V146.52C173.16 146.985 173.145 147.448 173.121 147.907C173.25 154.736 170.77 161.615 165.651 166.916C155.43 177.499 138.563 177.791 127.98 167.571L52.8901 95.0567C42.3064 84.8363 42.0105 67.9696 52.2312 57.386C62.4516 46.8028 79.3183 46.5111 89.9015 56.7311L119.88 85.6781V75.4798C119.88 60.767 131.808 48.8398 146.52 48.8398Z" fill="#D9D9D9"/>
</g>
<path d="M196.972 105.482C196.972 101.954 195.626 101.954 193.58 102.395C196.445 100.455 199.804 100.926 200.998 101.514L228.71 113.15C232.555 114.259 234.995 116.565 234.995 119.094V208.335C234.995 211.322 232.491 214.04 228.566 215.312L202.533 226.5C200.742 227.271 196.854 229.173 193.58 226.5C197.673 227.271 198.154 225.666 198.495 223.695L197.105 164.085L196.972 105.482Z" fill="white"/>
<path d="M193.913 102.332C196.084 101.964 196.972 102.134 196.972 105.482L199.569 150.5L178.495 164.085L152.337 188.47L131.484 201.341C130.017 202.451 127.954 202.266 126.705 200.915L113.284 184.607C111.93 183.141 112.025 180.847 113.495 179.5L128.995 164.5L152.357 142.472L193.58 102.395L193.913 102.332Z" fill="white"/>
<path d="M200.5 179.5L178.495 164.085L152.337 142.087L152.357 142.472L133.778 127.574C132.312 126.465 130.249 126.649 129 128L113.881 143.281C112.527 144.746 112.621 147.04 114.092 148.388L128.995 164.5L152.337 188.47L195.103 227.808C199.196 228.579 198.154 225.666 198.495 223.695L200.5 179.5Z" fill="white"/>
<path d="M202.507 113.387C202.507 109.934 198.641 109.934 196.922 110.366C199.328 108.467 202.149 108.927 203.151 109.503L226.383 120.894C228.596 121.979 230 124.237 230 126.712V201.648C230 204.156 228.559 206.438 226.3 207.506L204.44 217.843C202.936 218.49 199.672 220.087 196.922 217.842C200.359 218.49 202.22 216.044 202.507 214.389V113.387Z" fill="url(#paint0_linear_272_17)"/>
<path d="M197.202 110.304C199.025 109.944 202.507 110.11 202.507 113.387L202.508 139.181L169.562 164.105L152.428 177.067L132.075 192.464C130.844 193.395 129.111 193.24 128.063 192.106L120.804 184.251C119.666 183.021 119.746 181.094 120.981 179.963L138.285 164.105L152.428 151.143L196.922 110.366L197.202 110.304Z" fill="url(#paint1_linear_272_17)"/>
<path d="M202.508 189.028L169.562 164.105L160.995 157.624L152.428 151.143L132.075 135.746C130.844 134.814 129.111 134.969 128.063 136.104L120.804 143.958C119.666 145.189 119.746 147.115 120.981 148.247L138.285 164.105L152.428 177.067L196.923 217.843C200.359 218.491 202.22 216.044 202.507 214.389L202.508 189.028Z" fill="url(#paint2_linear_272_17)"/>
<defs>
<linearGradient id="paint0_linear_272_17" x1="213.461" y1="109" x2="213.461" y2="219" gradientUnits="userSpaceOnUse">
<stop stop-color="#32B5F1"/>
<stop offset="1" stop-color="#2B9FED"/>
</linearGradient>
<linearGradient id="paint1_linear_272_17" x1="202.508" y1="122.884" x2="124.014" y2="188.771" gradientUnits="userSpaceOnUse">
<stop stop-color="#0F6FB3"/>
<stop offset="0.270551" stop-color="#1279B7"/>
<stop offset="0.421376" stop-color="#1176B5"/>
<stop offset="0.618197" stop-color="#0E69AC"/>
<stop offset="0.855344" stop-color="#0F70AF"/>
<stop offset="1" stop-color="#0F6DAD"/>
</linearGradient>
<linearGradient id="paint2_linear_272_17" x1="124.538" y1="140.366" x2="202.811" y2="205.175" gradientUnits="userSpaceOnUse">
<stop stop-color="#1791D2"/>
<stop offset="1" stop-color="#1173C5"/>
</linearGradient>
</defs>
</svg>
